<mxfile host="65bd71144e">
    <diagram id="MKuSY8VSyavK2Ai-hcvc" name="Page-1">
        <mxGraphModel dx="1005" dy="792" grid="1" gridSize="10" guides="1" tooltips="1" connect="1" arrows="1" fold="1" page="1" pageScale="1" pageWidth="850" pageHeight="1100" math="0" shadow="0">
            <root>
                <mxCell id="0"/>
                <mxCell id="1" parent="0"/>
                <mxCell id="5" value="$STATEMACHINE : Tutorial1Sm" style="shape=swimlane;rotatable=0;align=center;verticalAlign=top;fontFamily=Lucida Console;startSize=30;fontSize=14;fontStyle=1;swimlaneFillColor=default;rounded=1;arcSize=15;absoluteArcSize=1;fillColor=#545454;fontColor=#EBEBEB;" parent="1" vertex="1">
                    <mxGeometry x="40" y="40" width="250" height="340" as="geometry"/>
                </mxCell>
                <mxCell id="6" value=" " style="fontFamily=Lucida Console;align=left;verticalAlign=top;fillColor=none;gradientColor=none;strokeColor=none;rounded=0;spacingLeft=4;resizable=0;movable=0;deletable=0;rotatable=0;autosize=1;" parent="5" vertex="1" connectable="0">
                    <mxGeometry y="30" width="30" height="20" as="geometry"/>
                </mxCell>
                <mxCell id="7" style="edgeStyle=none;html=1;" parent="5" source="8" target="9" edge="1">
                    <mxGeometry relative="1" as="geometry"/>
                </mxCell>
                <mxCell id="8" value="$initial_state" style="shape=ellipse;aspect=fixed;fillColor=#000000;resizable=0;rotatable=0;noLabel=1;editable=0;" parent="5" vertex="1">
                    <mxGeometry x="107.5" y="50" width="25" height="25" as="geometry"/>
                </mxCell>
                <mxCell id="9" value="OFF" style="shape=swimlane;rotatable=0;align=center;verticalAlign=top;fontFamily=Lucida Console;startSize=30;fontSize=14;fontStyle=1;swimlaneFillColor=default;html=1;rounded=1;arcSize=15;absoluteArcSize=1;fillColor=#545454;fontColor=#FAFAFA;" parent="5" vertex="1">
                    <mxGeometry x="30" y="110" width="180" height="60" as="geometry"/>
                </mxCell>
                <mxCell id="10" value="enter / light_off();" style="fontFamily=Lucida Console;align=left;verticalAlign=top;fillColor=none;gradientColor=none;strokeColor=none;rounded=0;spacingLeft=4;resizable=0;movable=0;deletable=0;rotatable=0;autosize=1;" parent="9" vertex="1" connectable="0">
                    <mxGeometry y="30" width="160" height="20" as="geometry"/>
                </mxCell>
                <mxCell id="24" value="DIM" style="edgeStyle=none;html=1;exitX=0.75;exitY=0;exitDx=0;exitDy=0;entryX=0.75;entryY=1;entryDx=0;entryDy=0;" parent="5" source="15" target="9" edge="1">
                    <mxGeometry x="-0.6667" relative="1" as="geometry">
                        <mxPoint as="offset"/>
                    </mxGeometry>
                </mxCell>
                <mxCell id="28" style="edgeStyle=none;html=1;exitX=0.5;exitY=1;exitDx=0;exitDy=0;entryX=0.5;entryY=0;entryDx=0;entryDy=0;" parent="5" source="9" target="15" edge="1">
                    <mxGeometry relative="1" as="geometry">
                        <mxPoint x="75" y="270" as="targetPoint"/>
                    </mxGeometry>
                </mxCell>
                <mxCell id="29" value="INCREASE" style="edgeLabel;html=1;align=center;verticalAlign=middle;resizable=0;points=[];" parent="28" vertex="1" connectable="0">
                    <mxGeometry x="-0.39" y="1" relative="1" as="geometry">
                        <mxPoint x="-1" y="5" as="offset"/>
                    </mxGeometry>
                </mxCell>
                <mxCell id="36" value="OFF" style="edgeStyle=none;html=1;exitX=0.25;exitY=0;exitDx=0;exitDy=0;entryX=0.25;entryY=1;entryDx=0;entryDy=0;" parent="5" source="15" target="9" edge="1">
                    <mxGeometry relative="1" as="geometry"/>
                </mxCell>
                <mxCell id="15" value="ON1" style="shape=swimlane;rotatable=0;align=center;verticalAlign=top;fontFamily=Lucida Console;startSize=30;fontSize=14;fontStyle=1;swimlaneFillColor=default;html=1;rounded=1;arcSize=15;absoluteArcSize=1;fillColor=#545454;fontColor=#FAFAFA;" parent="5" vertex="1">
                    <mxGeometry x="30" y="250" width="180" height="70" as="geometry"/>
                </mxCell>
                <mxCell id="16" value="enter / light_on1();" style="fontFamily=Lucida Console;align=left;verticalAlign=top;fillColor=none;gradientColor=none;strokeColor=none;rounded=0;spacingLeft=4;resizable=0;movable=0;deletable=0;rotatable=0;autosize=1;" parent="15" vertex="1" connectable="0">
                    <mxGeometry y="30" width="160" height="20" as="geometry"/>
                </mxCell>
                <mxCell id="40" value="$RenderConfig" style="shape=swimlane;rotatable=0;align=center;verticalAlign=top;fontFamily=Lucida Console;startSize=30;fontSize=14;fontStyle=1;swimlaneFillColor=default;html=1;rounded=1;arcSize=15;absoluteArcSize=1;fillColor=#76608a;strokeColor=#432D57;fontColor=#ffffff;" parent="1" vertex="1" collapsed="1">
                    <mxGeometry x="320" y="40" width="210" height="70" as="geometry">
                        <mxRectangle x="330" y="40" width="360" height="470" as="alternateBounds"/>
                    </mxGeometry>
                </mxCell>
                <mxCell id="41" value="" style="fontFamily=Lucida Console;align=left;verticalAlign=top;fillColor=none;gradientColor=none;strokeColor=none;rounded=0;spacingLeft=4;resizable=0;movable=0;deletable=0;rotatable=0;autosize=1;" parent="40" vertex="1" connectable="0">
                    <mxGeometry y="30" width="50" height="40" as="geometry"/>
                </mxCell>
                <mxCell id="42" value="HFileIncludes" style="shape=swimlane;rotatable=0;align=center;verticalAlign=top;fontFamily=Lucida Console;startSize=30;fontSize=14;fontStyle=1;swimlaneFillColor=default;html=1;rounded=1;arcSize=15;absoluteArcSize=1;fillColor=#545454;fontColor=#FAFAFA;" parent="40" vertex="1" collapsed="1">
                    <mxGeometry x="30" y="60" width="240" height="70" as="geometry">
                        <mxRectangle x="30" y="60" width="290" height="90" as="alternateBounds"/>
                    </mxGeometry>
                </mxCell>
                <mxCell id="43" value="// Some user .h file comment..." style="fontFamily=Lucida Console;align=left;verticalAlign=top;fillColor=none;gradientColor=none;strokeColor=none;rounded=0;spacingLeft=4;resizable=0;movable=0;deletable=0;rotatable=0;autosize=1;" parent="42" vertex="1" connectable="0">
                    <mxGeometry y="30" width="250" height="30" as="geometry"/>
                </mxCell>
                <mxCell id="57" value="&lt;b&gt;$NOTES&lt;/b&gt;&lt;br&gt;Anything you type in the &lt;b&gt;HFileIncludes &lt;/b&gt;vertex ends up in the generated h file. It is combined with the C# &lt;b&gt;IRenderConfigC.HFileIncludes&lt;/b&gt; config." style="shape=rectangle;rounded=1;arcSize=15;absoluteArcSize=1;align=left;verticalAlign=top;whiteSpace=wrap;html=1;spacingLeft=4;strokeWidth=1;strokeColor=default;fillColor=#fff2cc;fontColor=#000000;gradientColor=#ffd966;" parent="42" vertex="1">
                    <mxGeometry x="40" y="120" width="330" height="70" as="geometry"/>
                </mxCell>
                <mxCell id="48" value="CFileIncludes" style="shape=swimlane;rotatable=0;align=center;verticalAlign=top;fontFamily=Lucida Console;startSize=30;fontSize=14;fontStyle=1;swimlaneFillColor=default;html=1;rounded=1;arcSize=15;absoluteArcSize=1;fillColor=#545454;fontColor=#FAFAFA;" parent="40" vertex="1" collapsed="1">
                    <mxGeometry x="30" y="170" width="240" height="70" as="geometry">
                        <mxRectangle x="30" y="170" width="290" height="90" as="alternateBounds"/>
                    </mxGeometry>
                </mxCell>
                <mxCell id="49" value="// Some user .c file comment..." style="fontFamily=Lucida Console;align=left;verticalAlign=top;fillColor=none;gradientColor=none;strokeColor=none;rounded=0;spacingLeft=4;resizable=0;movable=0;deletable=0;rotatable=0;autosize=1;" parent="48" vertex="1" connectable="0">
                    <mxGeometry y="30" width="250" height="30" as="geometry"/>
                </mxCell>
                <mxCell id="59" value="&lt;b&gt;$NOTES&lt;/b&gt;&lt;br&gt;Anything you type in the &lt;b&gt;CFileIncludes &lt;/b&gt;vertex ends up in the generated h file. It is combined with the C# &lt;b&gt;IRenderConfigC.CFileIncludes&lt;/b&gt; config." style="shape=rectangle;rounded=1;arcSize=15;absoluteArcSize=1;align=left;verticalAlign=top;whiteSpace=wrap;html=1;spacingLeft=4;strokeWidth=1;strokeColor=default;fillColor=#fff2cc;fontColor=#000000;gradientColor=#ffd966;" parent="48" vertex="1">
                    <mxGeometry x="50" y="130" width="330" height="70" as="geometry"/>
                </mxCell>
                <mxCell id="50" value="VariableDeclarations" style="shape=swimlane;rotatable=0;align=center;verticalAlign=top;fontFamily=Lucida Console;startSize=30;fontSize=14;fontStyle=1;swimlaneFillColor=default;html=1;rounded=1;arcSize=15;absoluteArcSize=1;fillColor=#545454;fontColor=#FAFAFA;" parent="40" vertex="1" collapsed="1">
                    <mxGeometry x="30" y="270" width="240" height="70" as="geometry">
                        <mxRectangle x="30" y="170" width="290" height="90" as="alternateBounds"/>
                    </mxGeometry>
                </mxCell>
                <mxCell id="51" value="uint8_t count; Â // some user description for count field" style="fontFamily=Lucida Console;align=left;verticalAlign=top;fillColor=none;gradientColor=none;strokeColor=none;rounded=0;spacingLeft=4;resizable=0;movable=0;deletable=0;rotatable=0;autosize=1;" parent="50" vertex="1" connectable="0">
                    <mxGeometry y="30" width="430" height="30" as="geometry"/>
                </mxCell>
                <mxCell id="60" value="&lt;b&gt;$NOTES&lt;/b&gt;&lt;br&gt;Anything you type in the &lt;b&gt;VariableDeclarations&amp;nbsp;&lt;/b&gt;vertex ends up in the generated h file. It is combined with the C# &lt;b&gt;IRenderConfigC.VariableDeclarations&amp;nbsp;&lt;/b&gt;config." style="shape=rectangle;rounded=1;arcSize=15;absoluteArcSize=1;align=left;verticalAlign=top;whiteSpace=wrap;html=1;spacingLeft=4;strokeWidth=1;strokeColor=default;fillColor=#fff2cc;fontColor=#000000;gradientColor=#ffd966;" parent="50" vertex="1">
                    <mxGeometry x="60" y="140" width="330" height="70" as="geometry"/>
                </mxCell>
                <mxCell id="58" value="&lt;b&gt;$NOTES&lt;/b&gt;&lt;br&gt;Note that generic expansions can only be created from the C# file within the &lt;b&gt;IRenderConfigC &lt;/b&gt;section for now." style="shape=rectangle;rounded=1;arcSize=15;absoluteArcSize=1;align=left;verticalAlign=top;whiteSpace=wrap;html=1;spacingLeft=4;strokeWidth=1;strokeColor=default;fillColor=#fff2cc;fontColor=#000000;gradientColor=#ffd966;" parent="40" vertex="1">
                    <mxGeometry x="330" y="60" width="250" height="70" as="geometry"/>
                </mxCell>
            </root>
        </mxGraphModel>
    </diagram>
</mxfile>